<?xml version="1.0" encoding="utf-8"?>
<!-- Generator: Adobe Illustrator 22.0.0, SVG Export Plug-In . SVG Version: 6.00 Build 0)  -->
<svg version="1.1" id="Layer_1" xmlns="http://www.w3.org/2000/svg" xmlns:xlink="http://www.w3.org/1999/xlink" x="0px" y="0px"
	 viewBox="0 0 250 55" style="enable-background:new 0 0 250 55;" xml:space="preserve">
<style type="text/css">
	.st0{fill:#312E2F;}
</style>
<g>
	<path class="st0" d="M113.3,6c0-0.1,0-0.3,0-0.4c0-2.7-2.2-4.9-4.9-4.9c-2.7,0-4.9,2.2-4.9,4.9c0,0.1,0,0.3,0,0.4
		c-1.8,0.8-3,2.5-3,4.6c0,2.7,2.2,4.9,4.9,4.9c0.6,0,1.2-0.1,1.8-0.4v20.2h2.4V15.2c0.6,0.2,1.2,0.4,1.8,0.4c2.7,0,4.9-2.2,4.9-4.9
		C116.3,8.5,115.1,6.8,113.3,6"/>
	<path class="st0" d="M131.3,6c0-0.1,0-0.3,0-0.4c0-2.7-2.2-4.9-4.9-4.9c-2.7,0-4.9,2.2-4.9,4.9c0,0.1,0,0.3,0,0.4
		c-1.8,0.8-3,2.5-3,4.6c0,2.7,2.2,4.9,4.9,4.9c0.6,0,1.2-0.1,1.8-0.4v20.2h2.4V15.2c0.6,0.2,1.2,0.4,1.8,0.4c2.7,0,4.9-2.2,4.9-4.9
		C134.3,8.5,133,6.8,131.3,6"/>
	<path class="st0" d="M1,35.3V15.1h4l4.8,14.3c0.4,1.3,0.8,2.3,1,3c0.2-0.7,0.6-1.8,1.1-3.2l4.8-14h3.6v20.2h-2.6V18.4l-5.9,16.9
		H9.4L3.6,18.1v17.2H1z"/>
	<path class="st0" d="M32.8,28c0-2.7,0.8-4.7,2.3-6c1.3-1.1,2.8-1.6,4.6-1.6c2,0,3.7,0.7,4.9,2c1.3,1.3,1.9,3.1,1.9,5.5
		c0,1.9-0.3,3.4-0.8,4.4c-0.6,1.1-1.4,1.9-2.5,2.5c-1.1,0.6-2.3,0.9-3.5,0.9c-2,0-3.7-0.7-5-2C33.5,32.4,32.8,30.5,32.8,28 M35.4,28
		c0,1.9,0.4,3.3,1.2,4.2c0.8,0.9,1.8,1.4,3.1,1.4c1.2,0,2.3-0.5,3.1-1.4c0.8-0.9,1.2-2.4,1.2-4.3c0-1.8-0.4-3.2-1.2-4.1
		c-0.8-0.9-1.8-1.4-3.1-1.4c-1.2,0-2.3,0.5-3.1,1.4C35.8,24.7,35.4,26.1,35.4,28"/>
	<path class="st0" d="M57,30.9l2.5-0.4c0.1,1,0.5,1.7,1.1,2.3c0.6,0.5,1.5,0.8,2.6,0.8c1.1,0,2-0.2,2.5-0.7c0.6-0.5,0.8-1,0.8-1.6
		c0-0.6-0.2-1-0.7-1.3c-0.3-0.2-1.2-0.5-2.5-0.8c-1.8-0.5-3.1-0.9-3.8-1.2c-0.7-0.3-1.2-0.8-1.6-1.4c-0.4-0.6-0.5-1.2-0.5-2
		c0-0.7,0.1-1.3,0.4-1.8c0.3-0.6,0.7-1,1.2-1.4c0.4-0.3,0.9-0.5,1.6-0.7c0.7-0.2,1.4-0.3,2.1-0.3c1.1,0,2.2,0.2,3,0.5
		c0.9,0.3,1.5,0.8,1.9,1.3c0.4,0.6,0.7,1.3,0.9,2.3l-2.4,0.3c-0.1-0.8-0.4-1.3-1-1.8c-0.5-0.4-1.3-0.6-2.2-0.6c-1.1,0-2,0.2-2.4,0.6
		c-0.5,0.4-0.7,0.8-0.7,1.3c0,0.3,0.1,0.6,0.3,0.9c0.2,0.3,0.5,0.5,1,0.7c0.2,0.1,1,0.3,2.2,0.6c1.8,0.5,3,0.9,3.7,1.2
		c0.7,0.3,1.2,0.7,1.6,1.3c0.4,0.6,0.6,1.3,0.6,2.1c0,0.8-0.2,1.6-0.7,2.3c-0.5,0.7-1.2,1.3-2.1,1.7c-0.9,0.4-1.9,0.6-3.1,0.6
		c-1.9,0-3.3-0.4-4.3-1.2C58,33.7,57.3,32.5,57,30.9"/>
	<path class="st0" d="M91.1,30.6l2.6,0.3c-0.4,1.5-1.2,2.7-2.2,3.5c-1.1,0.8-2.5,1.2-4.2,1.2c-2.1,0-3.8-0.7-5.1-2
		c-1.3-1.3-1.9-3.2-1.9-5.5c0-2.5,0.6-4.4,1.9-5.7c1.3-1.4,2.9-2,4.9-2c2,0,3.6,0.7,4.8,2c1.2,1.3,1.9,3.2,1.9,5.6
		c0,0.1,0,0.4,0,0.7H82.8c0.1,1.6,0.5,2.8,1.4,3.7c0.8,0.9,1.8,1.3,3.1,1.3c0.9,0,1.7-0.2,2.3-0.7C90.2,32.4,90.7,31.6,91.1,30.6
		 M83,26.6h8.2c-0.1-1.2-0.4-2.2-0.9-2.8c-0.8-1-1.8-1.4-3.1-1.4c-1.1,0-2.1,0.4-2.9,1.1C83.5,24.3,83.1,25.3,83,26.6"/>
	<path class="st0" d="M138.1,28c0-2.7,0.8-4.7,2.3-6c1.3-1.1,2.8-1.6,4.6-1.6c2,0,3.7,0.7,4.9,2c1.3,1.3,1.9,3.1,1.9,5.5
		c0,1.9-0.3,3.4-0.8,4.4c-0.6,1.1-1.4,1.9-2.5,2.5c-1.1,0.6-2.3,0.9-3.5,0.9c-2,0-3.7-0.7-5-2C138.8,32.4,138.1,30.5,138.1,28
		 M140.7,28c0,1.9,0.4,3.3,1.2,4.2c0.8,0.9,1.8,1.4,3.1,1.4c1.2,0,2.3-0.5,3.1-1.4c0.8-0.9,1.2-2.4,1.2-4.3c0-1.8-0.4-3.2-1.2-4.1
		c-0.8-0.9-1.8-1.4-3.1-1.4c-1.2,0-2.3,0.5-3.1,1.4C141.1,24.7,140.7,26.1,140.7,28"/>
	<polygon class="st0" points="164.8,35.3 164.8,15.1 167.5,15.1 167.5,32.9 177.4,32.9 177.4,35.3 	"/>
	<path class="st0" d="M189.2,15.1h2.5V18h-2.5V15.1z M189.2,20.7h2.5v14.6h-2.5V20.7z"/>
	<path class="st0" d="M204.5,35.3V20.7h2.2v2.1c0.5-0.7,1.1-1.3,1.8-1.7c0.8-0.4,1.6-0.7,2.6-0.7c1.1,0,2,0.2,2.7,0.7
		c0.7,0.5,1.2,1.1,1.5,1.9c1.2-1.7,2.7-2.6,4.5-2.6c1.5,0,2.6,0.4,3.3,1.2c0.8,0.8,1.2,2,1.2,3.7v10h-2.5v-9.2c0-1-0.1-1.7-0.2-2.1
		c-0.2-0.4-0.5-0.8-0.9-1.1c-0.4-0.3-0.9-0.4-1.5-0.4c-1,0-1.9,0.3-2.6,1c-0.7,0.7-1,1.8-1,3.3v8.5h-2.5v-9.5c0-1.1-0.2-1.9-0.6-2.5
		c-0.4-0.5-1.1-0.8-2-0.8c-0.7,0-1.3,0.2-1.9,0.6c-0.6,0.4-1,0.9-1.3,1.6c-0.3,0.7-0.4,1.7-0.4,3.1v7.6H204.5z"/>
	<path class="st0" d="M245.9,33.5c-0.9,0.8-1.8,1.3-2.6,1.7c-0.8,0.3-1.8,0.5-2.7,0.5c-1.6,0-2.8-0.4-3.7-1.2
		c-0.9-0.8-1.3-1.8-1.3-3c0-0.7,0.2-1.4,0.5-2c0.3-0.6,0.8-1.1,1.3-1.4c0.5-0.4,1.1-0.6,1.8-0.8c0.5-0.1,1.2-0.3,2.2-0.4
		c2-0.2,3.5-0.5,4.4-0.9c0-0.3,0-0.6,0-0.6c0-1-0.2-1.7-0.7-2.1c-0.6-0.6-1.6-0.8-2.8-0.8c-1.2,0-2,0.2-2.6,0.6
		c-0.6,0.4-1,1.1-1.2,2.2l-2.4-0.3c0.2-1,0.6-1.9,1.1-2.5c0.5-0.6,1.2-1.1,2.2-1.5c1-0.3,2.1-0.5,3.3-0.5c1.2,0,2.3,0.1,3,0.4
		c0.8,0.3,1.4,0.7,1.7,1.1c0.4,0.4,0.6,1,0.8,1.7c0.1,0.4,0.1,1.2,0.1,2.3v3.3c0,2.3,0.1,3.8,0.2,4.4c0.1,0.6,0.3,1.2,0.6,1.8h-2.6
		C246.2,34.8,246,34.2,245.9,33.5 M245.7,28c-0.9,0.4-2.3,0.7-4,0.9c-1,0.1-1.7,0.3-2.2,0.5c-0.4,0.2-0.7,0.5-1,0.8
		c-0.2,0.4-0.3,0.7-0.3,1.2c0,0.7,0.2,1.2,0.8,1.7c0.5,0.4,1.2,0.7,2.2,0.7c1,0,1.8-0.2,2.5-0.6c0.7-0.4,1.3-1,1.6-1.7
		c0.3-0.6,0.4-1.4,0.4-2.5V28z"/>
	<path class="st0" d="M69.8,54.1l4-10.4h1.5l4.2,10.4h-1.6L76.7,51h-4.3l-1.1,3.1H69.8z M72.8,49.9h3.5L75.2,47
		c-0.3-0.9-0.6-1.6-0.7-2.2c-0.1,0.7-0.3,1.3-0.6,2L72.8,49.9z"/>
	<path class="st0" d="M91.1,54.1v-1c-0.5,0.7-1.2,1.1-2.1,1.1c-0.6,0-1.1-0.2-1.7-0.5c-0.5-0.3-0.9-0.8-1.2-1.4
		c-0.3-0.6-0.4-1.3-0.4-2c0-0.7,0.1-1.4,0.4-2c0.3-0.6,0.6-1.1,1.1-1.4c0.5-0.3,1.1-0.5,1.7-0.5c0.5,0,0.9,0.1,1.2,0.3
		c0.4,0.2,0.6,0.4,0.9,0.7v-3.7h1.3v10.4H91.1z M87.1,50.4c0,1,0.2,1.7,0.6,2.2c0.4,0.5,0.9,0.7,1.4,0.7c0.6,0,1-0.2,1.4-0.7
		c0.4-0.5,0.6-1.2,0.6-2.1c0-1-0.2-1.8-0.6-2.3c-0.4-0.5-0.9-0.7-1.5-0.7c-0.6,0-1,0.2-1.4,0.7C87.3,48.7,87.1,49.4,87.1,50.4"/>
	<path class="st0" d="M102.2,54.1l-2.9-7.5h1.3l1.6,4.5c0.2,0.5,0.3,1,0.5,1.5c0.1-0.4,0.3-0.9,0.5-1.4l1.7-4.6h1.3l-2.8,7.5H102.2z
		"/>
	<path class="st0" d="M112.8,50.4c0-1.4,0.4-2.4,1.2-3.1c0.6-0.6,1.4-0.8,2.4-0.8c1,0,1.9,0.3,2.5,1c0.7,0.7,1,1.6,1,2.8
		c0,1-0.1,1.7-0.4,2.3c-0.3,0.6-0.7,1-1.3,1.3c-0.6,0.3-1.2,0.5-1.8,0.5c-1.1,0-1.9-0.3-2.5-1C113.1,52.6,112.8,51.6,112.8,50.4
		 M114.1,50.4c0,1,0.2,1.7,0.6,2.2c0.4,0.5,0.9,0.7,1.6,0.7c0.6,0,1.2-0.2,1.6-0.7c0.4-0.5,0.6-1.2,0.6-2.2c0-0.9-0.2-1.6-0.6-2.1
		c-0.4-0.5-0.9-0.7-1.6-0.7c-0.6,0-1.2,0.2-1.6,0.7C114.3,48.7,114.1,49.4,114.1,50.4"/>
	<path class="st0" d="M130.8,51.4l1.3,0.2c-0.1,0.9-0.5,1.5-1.1,2c-0.6,0.5-1.3,0.7-2.1,0.7c-1,0-1.9-0.3-2.5-1
		c-0.6-0.7-0.9-1.6-0.9-2.9c0-0.8,0.1-1.5,0.4-2.1c0.3-0.6,0.7-1.1,1.2-1.4c0.5-0.3,1.1-0.5,1.8-0.5c0.8,0,1.5,0.2,2,0.6
		c0.5,0.4,0.9,1,1,1.8l-1.2,0.2c-0.1-0.5-0.3-0.9-0.6-1.1c-0.3-0.3-0.7-0.4-1.1-0.4c-0.6,0-1.2,0.2-1.6,0.7
		c-0.4,0.5-0.6,1.2-0.6,2.2c0,1,0.2,1.7,0.6,2.2c0.4,0.5,0.9,0.7,1.5,0.7c0.5,0,0.9-0.2,1.3-0.5C130.5,52.5,130.7,52,130.8,51.4"/>
	<path class="st0" d="M142.6,53.2c-0.5,0.4-0.9,0.7-1.4,0.8c-0.4,0.2-0.9,0.2-1.4,0.2c-0.8,0-1.5-0.2-1.9-0.6
		c-0.4-0.4-0.7-0.9-0.7-1.5c0-0.4,0.1-0.7,0.3-1c0.2-0.3,0.4-0.5,0.7-0.7c0.3-0.2,0.6-0.3,0.9-0.4c0.3-0.1,0.6-0.1,1.1-0.2
		c1-0.1,1.8-0.3,2.3-0.4c0-0.2,0-0.3,0-0.3c0-0.5-0.1-0.9-0.4-1.1c-0.3-0.3-0.8-0.4-1.4-0.4c-0.6,0-1,0.1-1.3,0.3
		c-0.3,0.2-0.5,0.6-0.6,1.1l-1.2-0.2c0.1-0.5,0.3-1,0.6-1.3c0.3-0.3,0.6-0.6,1.1-0.8c0.5-0.2,1.1-0.3,1.7-0.3c0.6,0,1.2,0.1,1.6,0.2
		c0.4,0.2,0.7,0.3,0.9,0.6c0.2,0.2,0.3,0.5,0.4,0.9c0,0.2,0.1,0.6,0.1,1.2V51c0,1.2,0,1.9,0.1,2.2c0.1,0.3,0.2,0.6,0.3,0.9h-1.3
		C142.7,53.9,142.7,53.6,142.6,53.2 M142.5,50.4c-0.5,0.2-1.2,0.3-2.1,0.5c-0.5,0.1-0.9,0.2-1.1,0.3c-0.2,0.1-0.4,0.2-0.5,0.4
		c-0.1,0.2-0.2,0.4-0.2,0.6c0,0.3,0.1,0.6,0.4,0.8c0.3,0.2,0.6,0.3,1.1,0.3c0.5,0,0.9-0.1,1.3-0.3c0.4-0.2,0.7-0.5,0.8-0.9
		c0.1-0.3,0.2-0.7,0.2-1.3V50.4z"/>
	<path class="st0" d="M155.3,51.4l1.3,0.2c-0.1,0.9-0.5,1.5-1.1,2c-0.6,0.5-1.3,0.7-2.1,0.7c-1,0-1.9-0.3-2.5-1
		c-0.6-0.7-0.9-1.6-0.9-2.9c0-0.8,0.1-1.5,0.4-2.1c0.3-0.6,0.7-1.1,1.2-1.4c0.6-0.3,1.1-0.5,1.8-0.5c0.8,0,1.5,0.2,2,0.6
		c0.5,0.4,0.9,1,1,1.8l-1.2,0.2c-0.1-0.5-0.3-0.9-0.6-1.1c-0.3-0.3-0.7-0.4-1.1-0.4c-0.6,0-1.2,0.2-1.6,0.7
		c-0.4,0.5-0.6,1.2-0.6,2.2c0,1,0.2,1.7,0.6,2.2c0.4,0.5,0.9,0.7,1.5,0.7c0.5,0,0.9-0.2,1.3-0.5C155,52.5,155.2,52,155.3,51.4"/>
	<path class="st0" d="M162.2,43.8h1.3v1.5h-1.3V43.8z M162.2,46.6h1.3v7.5h-1.3V46.6z"/>
	<path class="st0" d="M174.9,53.2c-0.5,0.4-0.9,0.7-1.4,0.8c-0.4,0.2-0.9,0.2-1.4,0.2c-0.8,0-1.5-0.2-1.9-0.6
		c-0.4-0.4-0.7-0.9-0.7-1.5c0-0.4,0.1-0.7,0.3-1c0.2-0.3,0.4-0.5,0.7-0.7c0.3-0.2,0.6-0.3,0.9-0.4c0.2-0.1,0.6-0.1,1.1-0.2
		c1-0.1,1.8-0.3,2.3-0.4c0-0.2,0-0.3,0-0.3c0-0.5-0.1-0.9-0.4-1.1c-0.3-0.3-0.8-0.4-1.4-0.4c-0.6,0-1,0.1-1.3,0.3
		c-0.3,0.2-0.5,0.6-0.6,1.1l-1.2-0.2c0.1-0.5,0.3-1,0.6-1.3c0.3-0.3,0.6-0.6,1.1-0.8c0.5-0.2,1.1-0.3,1.7-0.3c0.6,0,1.2,0.1,1.6,0.2
		c0.4,0.2,0.7,0.3,0.9,0.6c0.2,0.2,0.3,0.5,0.4,0.9c0,0.2,0.1,0.6,0.1,1.2V51c0,1.2,0,1.9,0.1,2.2c0.1,0.3,0.2,0.6,0.3,0.9h-1.3
		C175,53.9,174.9,53.6,174.9,53.2 M174.8,50.4c-0.5,0.2-1.2,0.3-2.1,0.5c-0.5,0.1-0.9,0.2-1.1,0.3c-0.2,0.1-0.4,0.2-0.5,0.4
		c-0.1,0.2-0.2,0.4-0.2,0.6c0,0.3,0.1,0.6,0.4,0.8c0.3,0.2,0.6,0.3,1.1,0.3c0.5,0,0.9-0.1,1.3-0.3c0.4-0.2,0.7-0.5,0.8-0.9
		c0.1-0.3,0.2-0.7,0.2-1.3V50.4z"/>
</g>
</svg>
